{
  "accessors": [
    {
      "bufferView": 2,
      "componentType": 5126,
      "count": 7555,
      "max": [
        16.445558547973633,
        11.449485778808594,
        171.971435546875
      ],
      "min": [
        -16.4455623626709,
        -20.616220474243164,
        142.96282958984375
      ],
      "type": "VEC3"
    },
    {
      "bufferView": 2,
      "byteOffset": 90660,
      "componentType": 5126,
      "count": 7555,
      "max": [
        0.9993959069252014,
        0.9999582171440125,
        0.9999850988388062
      ],
      "min": [
        -0.9993959069252014,
        -0.9999755024909973,
        -0.9995059967041016
      ],
      "type": "VEC3"
    },
    {
      "bufferView": 1,
      "componentType": 5126,
      "count": 7555,
      "max": [
        0.9946290254592896,
        0.9829710125923157
      ],
      "min": [
        0.005981000140309334,
        0.0014649999793618917
      ],
      "type": "VEC2"
    },
    {
      "bufferView": 0,
      "componentType": 5125,
      "count": 34830,
      "type": "SCALAR"
    },
    {
      "bufferView": 2,
      "byteOffset": 181320,
      "componentType": 5126,
      "count": 12634,
      "max": [
        59.63189697265625,
        17.61300277709961,
        147.69760131835938
      ],
      "min": [
        -59.63189697265625,
        -17.340099334716797,
        0.029093999415636063
      ],
      "type": "VEC3"
    },
    {
      "bufferView": 2,
      "byteOffset": 332928,
      "componentType": 5126,
      "count": 12634,
      "max": [
        0.9999315738677979,
        0.9999783635139465,
        0.9997443556785583
      ],
      "min": [
        -0.9997085332870483,
        -0.9999953508377075,
        -0.9997841119766235
      ],
      "type": "VEC3"
    },
    {
      "bufferView": 1,
      "byteOffset": 60440,
      "componentType": 5126,
      "count": 12634,
      "max": [
        0.9975590109825134,
        0.9991160035133362
      ],
      "min": [
        0.003223000094294548,
        0.0034179999493062496
      ],
      "type": "VEC2"
    },
    {
      "bufferView": 0,
      "byteOffset": 139320,
      "componentType": 5125,
      "count": 67584,
      "type": "SCALAR"
    }
  ],
  "asset": {
    "extras": {
      "author": "Yung Samzy (https://sketchfab.com/SSLeaker)",
      "license": "CC-BY-4.0 (http://creativecommons.org/licenses/by/4.0/)",
      "source": "https://sketchfab.com/3d-models/stranger-things-x-fortnite-zombie-c83624ad8bca4b689b6fd049e45039e2",
      "title": "Stranger Things X Fortnite Zombie"
    },
    "generator": "Sketchfab-12.67.0",
    "version": "2.0"
  },
  "bufferViews": [
    {
      "buffer": 0,
      "byteLength": 409656,
      "name": "floatBufferViews",
      "target": 34963
    },
    {
      "buffer": 0,
      "byteLength": 161512,
      "byteOffset": 409656,
      "byteStride": 8,
      "name": "floatBufferViews",
      "target": 34962
    },
    {
      "buffer": 0,
      "byteLength": 484536,
      "byteOffset": 571168,
      "byteStride": 12,
      "name": "floatBufferViews",
      "target": 34962
    }
  ],
  "buffers": [
    {
      "byteLength": 1055704,
      "uri": "zombie1.bin"
    }
  ],
  "images": [
    {
      "uri": "textures/M_Med-Weird_Objects_Creature_He_baseColor.png"
    },
    {
      "uri": "textures/M_Med_Weird_Objects_Creature_Bo_baseColor.png"
    }
  ],
  "materials": [
    {
      "doubleSided": true,
      "name": "M_Med-Weird_Objects_Creature_He",
      "pbrMetallicRoughness": {
        "baseColorTexture": {
          "index": 0
        },
        "metallicFactor": 0.0,
        "roughnessFactor": 0.6
      }
    },
    {
      "doubleSided": true,
      "name": "M_Med_Weird_Objects_Creature_Bo",
      "pbrMetallicRoughness": {
        "baseColorTexture": {
          "index": 1
        },
        "metallicFactor": 0.0,
        "roughnessFactor": 0.6
      }
    }
  ],
  "meshes": [
    {
      "name": "Object_0",
      "primitives": [
        {
          "attributes": {
            "NORMAL": 1,
            "POSITION": 0,
            "TEXCOORD_0": 2
          },
          "indices": 3,
          "material": 0,
          "mode": 4
        }
      ]
    },
    {
      "name": "Object_1",
      "primitives": [
        {
          "attributes": {
            "NORMAL": 5,
            "POSITION": 4,
            "TEXCOORD_0": 6
          },
          "indices": 7,
          "material": 1,
          "mode": 4
        }
      ]
    }
  ],
  "nodes": [
    {
      "children": [
        1
      ],
      "matrix": [
        1.0,
        0.0,
        0.0,
        0.0,
        0.0,
        2.220446049250313e-16,
        -1.0,
        0.0,
        0.0,
        1.0,
        2.220446049250313e-16,
        0.0,
        0.0,
        0.0,
        0.0,
        1.0
      ],
      "name": "Sketchfab_model"
    },
    {
      "children": [
        2,
        3
      ],
      "name": "Stranger Things X Fortnite Zombie.obj.cleaner.materialmerger.gles"
    },
    {
      "mesh": 0,
      "name": "Object_2"
    },
    {
      "mesh": 1,
      "name": "Object_3"
    }
  ],
  "samplers": [
    {
      "magFilter": 9729,
      "minFilter": 9987,
      "wrapS": 10497,
      "wrapT": 10497
    }
  ],
  "scene": 0,
  "scenes": [
    {
      "name": "Sketchfab_Scene",
      "nodes": [
        0
      ]
    }
  ],
  "textures": [
    {
      "sampler": 0,
      "source": 0
    },
    {
      "sampler": 0,
      "source": 1
    }
  ]
}
