{
  "accessors": [
    {
      "bufferView": 2,
      "componentType": 5126,
      "count": 546,
      "max": [
        0.8244829773902893,
        0.35185399651527405,
        0.370961993932724
      ],
      "min": [
        -0.936037003993988,
        -0.4478969871997833,
        -0.05211300030350685
      ],
      "type": "VEC3"
    },
    {
      "bufferView": 2,
      "byteOffset": 6552,
      "componentType": 5126,
      "count": 546,
      "max": [
        0.9983396530151367,
        0.9938586354255676,
        0.9800705313682556
      ],
      "min": [
        -0.999427080154419,
        -0.9814181327819824,
        -0.9976447224617004
      ],
      "type": "VEC3"
    },
    {
      "bufferView": 1,
      "componentType": 5126,
      "count": 546,
      "max": [
        0.9926909804344177,
        0.9926760196685791
      ],
      "min": [
        0.008011000230908394,
        0.00016799999866634607
      ],
      "type": "VEC2"
    },
    {
      "bufferView": 0,
      "componentType": 5125,
      "count": 2412,
      "type": "SCALAR"
    },
    {
      "bufferView": 2,
      "byteOffset": 13104,
      "componentType": 5126,
      "count": 1898,
      "max": [
        0.3647119998931885,
        0.5390710234642029,
        4.5523271560668945
      ],
      "min": [
        -0.37296101450920105,
        -0.3788850009441376,
        2.9332730770111084
      ],
      "type": "VEC3"
    },
    {
      "bufferView": 2,
      "byteOffset": 35880,
      "componentType": 5126,
      "count": 1898,
      "max": [
        0.9999163150787354,
        0.9999610185623169,
        0.997776448726654
      ],
      "min": [
        -0.9959421157836914,
        -0.9992550015449524,
        -0.9998142123222351
      ],
      "type": "VEC3"
    },
    {
      "bufferView": 1,
      "byteOffset": 4368,
      "componentType": 5126,
      "count": 1898,
      "max": [
        0.9869329929351807,
        0.928987979888916
      ],
      "min": [
        -0.004182999953627586,
        -0.0064489999786019325
      ],
      "type": "VEC2"
    },
    {
      "bufferView": 0,
      "byteOffset": 9648,
      "componentType": 5125,
      "count": 8244,
      "type": "SCALAR"
    },
    {
      "bufferView": 2,
      "byteOffset": 58656,
      "componentType": 5126,
      "count": 928,
      "max": [
        1.1933380365371704,
        0.4065989851951599,
        3.7832939624786377
      ],
      "min": [
        -1.3204809427261353,
        -0.31452998518943787,
        2.225296974182129
      ],
      "type": "VEC3"
    },
    {
      "bufferView": 2,
      "byteOffset": 69792,
      "componentType": 5126,
      "count": 928,
      "max": [
        0.9984966516494751,
        0.9999034404754639,
        0.9328462481498718
      ],
      "min": [
        -0.9994779229164124,
        -0.999575674533844,
        -0.999891996383667
      ],
      "type": "VEC3"
    },
    {
      "bufferView": 1,
      "byteOffset": 19552,
      "componentType": 5126,
      "count": 928,
      "max": [
        0.9942929744720459,
        0.9925990104675293
      ],
      "min": [
        0.01129200030118227,
        0.007294000126421452
      ],
      "type": "VEC2"
    },
    {
      "bufferView": 0,
      "byteOffset": 42624,
      "componentType": 5125,
      "count": 4506,
      "type": "SCALAR"
    },
    {
      "bufferView": 2,
      "byteOffset": 80928,
      "componentType": 5126,
      "count": 1470,
      "max": [
        0.6567699909210205,
        0.3679620027542114,
        2.4441580772399902
      ],
      "min": [
        -0.733210027217865,
        -0.3073660135269165,
        0.22873200476169586
      ],
      "type": "VEC3"
    },
    {
      "bufferView": 2,
      "byteOffset": 98568,
      "componentType": 5126,
      "count": 1470,
      "max": [
        0.9984134435653687,
        0.9997484087944031,
        0.999896764755249
      ],
      "min": [
        -0.9996557831764221,
        -0.9999418258666992,
        -0.9993250370025635
      ],
      "type": "VEC3"
    },
    {
      "bufferView": 1,
      "byteOffset": 26976,
      "componentType": 5126,
      "count": 1470,
      "max": [
        0.9947199821472168,
        0.9857019782066345
      ],
      "min": [
        0.017105000093579292,
        0.0070500001311302185
      ],
      "type": "VEC2"
    },
    {
      "bufferView": 0,
      "byteOffset": 60648,
      "componentType": 5125,
      "count": 5208,
      "type": "SCALAR"
    },
    {
      "bufferView": 2,
      "byteOffset": 116208,
      "componentType": 5126,
      "count": 989,
      "max": [
        1.2867289781570435,
        0.31225401163101196,
        3.715786933898926
      ],
      "min": [
        -1.4436049461364746,
        -0.34543299674987793,
        -0.011686000041663647
      ],
      "type": "VEC3"
    },
    {
      "bufferView": 2,
      "byteOffset": 128076,
      "componentType": 5126,
      "count": 989,
      "max": [
        0.999984622001648,
        0.9994718432426453,
        0.9668105840682983
      ],
      "min": [
        -0.9984942674636841,
        -0.9999973773956299,
        -0.9947143793106079
      ],
      "type": "VEC3"
    },
    {
      "bufferView": 1,
      "byteOffset": 38736,
      "componentType": 5126,
      "count": 989,
      "max": [
        0.9935910105705261,
        0.8977239727973938
      ],
      "min": [
        0.043595001101493835,
        0.22656400501728058
      ],
      "type": "VEC2"
    },
    {
      "bufferView": 0,
      "byteOffset": 81480,
      "componentType": 5125,
      "count": 4323,
      "type": "SCALAR"
    }
  ],
  "asset": {
    "extras": {
      "author": "KICHU_GAMING_YT (https://sketchfab.com/KICHU_GAMING_YT)",
      "license": "CC-BY-4.0 (http://creativecommons.org/licenses/by/4.0/)",
      "source": "https://sketchfab.com/3d-models/red-zombie-bundle-2d18c34c387142c29d14fadc9516d255",
      "title": "RED ZOMBIE BUNDLE"
    },
    "generator": "Sketchfab-12.66.0",
    "version": "2.0"
  },
  "bufferViews": [
    {
      "buffer": 0,
      "byteLength": 98772,
      "name": "floatBufferViews",
      "target": 34963
    },
    {
      "buffer": 0,
      "byteLength": 46648,
      "byteOffset": 98772,
      "byteStride": 8,
      "name": "floatBufferViews",
      "target": 34962
    },
    {
      "buffer": 0,
      "byteLength": 139944,
      "byteOffset": 145420,
      "byteStride": 12,
      "name": "floatBufferViews",
      "target": 34962
    }
  ],
  "buffers": [
    {
      "byteLength": 285364,
      "uri": "zombie3.bin"
    }
  ],
  "images": [
    {
      "uri": "textures/Material.006_baseColor.png"
    },
    {
      "uri": "textures/Material.007_baseColor.png"
    },
    {
      "uri": "textures/Material.008_baseColor.png"
    },
    {
      "uri": "textures/Material.009_baseColor.png"
    },
    {
      "uri": "textures/Material.010_baseColor.png"
    }
  ],
  "materials": [
    {
      "doubleSided": true,
      "name": "Material.006",
      "pbrMetallicRoughness": {
        "baseColorTexture": {
          "index": 0
        },
        "metallicFactor": 0.0,
        "roughnessFactor": 0.7880318375580224
      }
    },
    {
      "doubleSided": true,
      "name": "Material.007",
      "pbrMetallicRoughness": {
        "baseColorTexture": {
          "index": 1
        },
        "metallicFactor": 0.0,
        "roughnessFactor": 0.7880318375580224
      }
    },
    {
      "doubleSided": true,
      "name": "Material.008",
      "pbrMetallicRoughness": {
        "baseColorTexture": {
          "index": 2
        },
        "metallicFactor": 0.0,
        "roughnessFactor": 0.7880318375580224
      }
    },
    {
      "doubleSided": true,
      "name": "Material.009",
      "pbrMetallicRoughness": {
        "baseColorTexture": {
          "index": 3
        },
        "metallicFactor": 0.0,
        "roughnessFactor": 0.7880318375580224
      }
    },
    {
      "doubleSided": true,
      "name": "Material.010",
      "pbrMetallicRoughness": {
        "baseColorTexture": {
          "index": 4
        },
        "metallicFactor": 0.0,
        "roughnessFactor": 0.7880318375580224
      }
    }
  ],
  "meshes": [
    {
      "name": "Object_0",
      "primitives": [
        {
          "attributes": {
            "NORMAL": 1,
            "POSITION": 0,
            "TEXCOORD_0": 2
          },
          "indices": 3,
          "material": 0,
          "mode": 4
        }
      ]
    },
    {
      "name": "Object_1",
      "primitives": [
        {
          "attributes": {
            "NORMAL": 5,
            "POSITION": 4,
            "TEXCOORD_0": 6
          },
          "indices": 7,
          "material": 1,
          "mode": 4
        }
      ]
    },
    {
      "name": "Object_2",
      "primitives": [
        {
          "attributes": {
            "NORMAL": 9,
            "POSITION": 8,
            "TEXCOORD_0": 10
          },
          "indices": 11,
          "material": 2,
          "mode": 4
        }
      ]
    },
    {
      "name": "Object_3",
      "primitives": [
        {
          "attributes": {
            "NORMAL": 13,
            "POSITION": 12,
            "TEXCOORD_0": 14
          },
          "indices": 15,
          "material": 3,
          "mode": 4
        }
      ]
    },
    {
      "name": "Object_4",
      "primitives": [
        {
          "attributes": {
            "NORMAL": 17,
            "POSITION": 16,
            "TEXCOORD_0": 18
          },
          "indices": 19,
          "material": 4,
          "mode": 4
        }
      ]
    }
  ],
  "nodes": [
    {
      "children": [
        1
      ],
      "matrix": [
        1.0,
        0.0,
        0.0,
        0.0,
        0.0,
        2.220446049250313e-16,
        -1.0,
        0.0,
        0.0,
        1.0,
        2.220446049250313e-16,
        0.0,
        0.0,
        0.0,
        0.0,
        1.0
      ],
      "name": "Sketchfab_model"
    },
    {
      "children": [
        2,
        3,
        4,
        5,
        6
      ],
      "name": "DEVIL.obj.cleaner.materialmerger.gles"
    },
    {
      "mesh": 0,
      "name": "Object_2"
    },
    {
      "mesh": 1,
      "name": "Object_3"
    },
    {
      "mesh": 2,
      "name": "Object_4"
    },
    {
      "mesh": 3,
      "name": "Object_5"
    },
    {
      "mesh": 4,
      "name": "Object_6"
    }
  ],
  "samplers": [
    {
      "magFilter": 9729,
      "minFilter": 9987,
      "wrapS": 10497,
      "wrapT": 10497
    }
  ],
  "scene": 0,
  "scenes": [
    {
      "name": "Sketchfab_Scene",
      "nodes": [
        0
      ]
    }
  ],
  "textures": [
    {
      "sampler": 0,
      "source": 0
    },
    {
      "sampler": 0,
      "source": 1
    },
    {
      "sampler": 0,
      "source": 2
    },
    {
      "sampler": 0,
      "source": 3
    },
    {
      "sampler": 0,
      "source": 4
    }
  ]
}
